{
  "accessors": [
    {
      "bufferView": 2,
      "componentType": 5126,
      "count": 2707,
      "max": [
        0.7933560013771057,
        0.3612036406993866,
        0.7959280610084534
      ],
      "min": [
        -0.7781115770339966,
        -0.29681089520454407,
        -0.0005869903834536672
      ],
      "type": "VEC3"
    },
    {
      "bufferView": 2,
      "byteOffset": 32484,
      "componentType": 5126,
      "count": 2707,
      "max": [
        0.9999994039535522,
        1.0,
        0.9999999403953552
      ],
      "min": [
        -1.0,
        -1.0,
        -1.0
      ],
      "type": "VEC3"
    },
    {
      "bufferView": 3,
      "componentType": 5126,
      "count": 2707,
      "max": [
        1.0,
        0.9999404549598694,
        0.9999184012413025,
        1.0
      ],
      "min": [
        -1.0,
        -0.9999974966049194,
        -0.9998345971107483,
        -1.0
      ],
      "type": "VEC4"
    },
    {
      "bufferView": 1,
      "componentType": 5126,
      "count": 2707,
      "max": [
        0.9952442646026611,
        0.9981957077980042
      ],
      "min": [
        -0.0012085814960300922,
        0.00039560068398714066
      ],
      "type": "VEC2"
    },
    {
      "bufferView": 1,
      "byteOffset": 21656,
      "componentType": 5126,
      "count": 2707,
      "max": [
        0.9952442646026611,
        0.9981957077980042
      ],
      "min": [
        -0.0012085814960300922,
        0.00039560068398714066
      ],
      "type": "VEC2"
    },
    {
      "bufferView": 1,
      "byteOffset": 43312,
      "componentType": 5126,
      "count": 2707,
      "max": [
        0.9952442646026611,
        0.9981957077980042
      ],
      "min": [
        -0.0012085814960300922,
        0.00039560068398714066
      ],
      "type": "VEC2"
    },
    {
      "bufferView": 0,
      "componentType": 5125,
      "count": 12303,
      "type": "SCALAR"
    }
  ],
  "asset": {
    "extras": {
      "author": "mohamedhussien (https://sketchfab.com/mohamedhussien)",
      "license": "CC-BY-4.0 (http://creativecommons.org/licenses/by/4.0/)",
      "source": "https://sketchfab.com/3d-models/sofa-01-4k-94b0183742324e0893fffba6989303e5",
      "title": "Sofa 01 4k"
    },
    "generator": "Sketchfab-12.56.0",
    "version": "2.0"
  },
  "bufferViews": [
    {
      "buffer": 0,
      "byteLength": 49212,
      "name": "floatBufferViews",
      "target": 34963
    },
    {
      "buffer": 0,
      "byteLength": 64968,
      "byteOffset": 49212,
      "byteStride": 8,
      "name": "floatBufferViews",
      "target": 34962
    },
    {
      "buffer": 0,
      "byteLength": 64968,
      "byteOffset": 114180,
      "byteStride": 12,
      "name": "floatBufferViews",
      "target": 34962
    },
    {
      "buffer": 0,
      "byteLength": 43312,
      "byteOffset": 179148,
      "byteStride": 16,
      "name": "floatBufferViews",
      "target": 34962
    }
  ],
  "buffers": [
    {
      "byteLength": 222460,
      "uri": "scene.bin"
    }
  ],
  "images": [
    {
      "uri": "textures/Sofa_01_baseColor.jpeg"
    },
    {
      "uri": "textures/Sofa_01_metallicRoughness.png"
    },
    {
      "uri": "textures/Sofa_01_normal.png"
    }
  ],
  "materials": [
    {
      "doubleSided": true,
      "name": "Sofa_01",
      "normalTexture": {
        "index": 2
      },
      "pbrMetallicRoughness": {
        "baseColorTexture": {
          "index": 0
        },
        "metallicRoughnessTexture": {
          "index": 1
        }
      }
    }
  ],
  "meshes": [
    {
      "name": "Sofa_01_Sofa_01_0",
      "primitives": [
        {
          "attributes": {
            "NORMAL": 1,
            "POSITION": 0,
            "TANGENT": 2,
            "TEXCOORD_0": 3,
            "TEXCOORD_1": 4,
            "TEXCOORD_2": 5
          },
          "indices": 6,
          "material": 0,
          "mode": 4
        }
      ]
    }
  ],
  "nodes": [
    {
      "children": [
        1
      ],
      "matrix": [
        1.0,
        0.0,
        0.0,
        0.0,
        0.0,
        2.220446049250313e-16,
        -1.0,
        0.0,
        0.0,
        1.0,
        2.220446049250313e-16,
        0.0,
        0.0,
        0.0,
        0.0,
        1.0
      ],
      "name": "Sketchfab_model"
    },
    {
      "children": [
        2
      ],
      "matrix": [
        0.009999999776482582,
        0.0,
        0.0,
        0.0,
        0.0,
        0.0,
        0.009999999776482582,
        0.0,
        0.0,
        -0.009999999776482582,
        0.0,
        0.0,
        0.0,
        0.0,
        0.0,
        1.0
      ],
      "name": "Sofa_01_4k.fbx"
    },
    {
      "children": [
        3
      ],
      "name": "RootNode"
    },
    {
      "children": [
        4
      ],
      "matrix": [
        100.0,
        0.0,
        0.0,
        0.0,
        0.0,
        -1.629206793918314e-05,
        -99.99999999999868,
        0.0,
        0.0,
        99.99999999999868,
        -1.629206793918314e-05,
        0.0,
        0.0,
        0.0,
        0.0,
        1.0
      ],
      "name": "Sofa_01"
    },
    {
      "mesh": 0,
      "name": "Sofa_01_Sofa_01_0"
    }
  ],
  "samplers": [
    {
      "magFilter": 9729,
      "minFilter": 9987,
      "wrapS": 10497,
      "wrapT": 10497
    }
  ],
  "scene": 0,
  "scenes": [
    {
      "name": "Sketchfab_Scene",
      "nodes": [
        0
      ]
    }
  ],
  "textures": [
    {
      "sampler": 0,
      "source": 0
    },
    {
      "sampler": 0,
      "source": 1
    },
    {
      "sampler": 0,
      "source": 2
    }
  ]
}
